<svg width="320" height="320" viewBox="0 0 320 320" fill="none" xmlns="http://www.w3.org/2000/svg">
<path d="M121.043 155.359C121.186 156.948 121.286 158.551 121.286 160.177C121.286 158.55 121.186 156.948 121.043 155.359Z" fill="white"/>
<path d="M43.1937 155.082C43.1937 155.082 28.602 208.848 87.0906 209.316C96.2644 205.909 104.303 200.005 110.297 192.269C116.291 184.534 120.003 175.277 121.013 165.543C121.155 164.146 121.197 162.722 121.228 161.295C121.234 160.918 121.284 160.555 121.284 160.176C121.284 158.55 121.185 156.947 121.041 155.359C105.59 216.19 37.2309 192.362 43.1937 155.082Z" fill="white"/>
<path d="M73.4374 135.124C73.4374 135.124 18.9848 119.919 19.8176 179.296C22.6088 186.472 26.9408 192.949 32.5081 198.268C32.7389 198.489 32.9837 198.699 33.2206 198.917C34.796 200.369 36.4586 201.723 38.1991 202.973C38.4682 203.166 38.7231 203.376 38.9943 203.567C40.8345 204.825 42.7533 205.965 44.7391 206.978C45.3163 207.275 45.9056 207.546 46.495 207.823C48.2041 208.628 49.956 209.338 51.7426 209.952C52.1806 210.102 52.6004 210.289 53.0444 210.428C55.1852 211.084 57.3662 211.601 59.5736 211.976C60.241 212.094 60.9192 212.191 61.5919 212.284C63.8825 212.615 66.1924 212.795 68.5067 212.822C68.5955 212.822 68.6816 212.836 68.7704 212.836C70.5156 212.836 72.2385 212.743 73.9386 212.575C12.8316 197.997 36.0644 129.673 73.4374 135.124Z" fill="white"/>
<path d="M94.6633 163.283C94.6633 163.283 107.548 108.967 49.5534 111.393C38.5783 115.635 29.3686 123.477 23.4325 133.636C17.4963 143.795 15.1854 155.668 16.8783 167.312C29.0844 105.857 98.6178 125.755 94.6633 163.283Z" fill="white"/>
<path d="M66.818 186.658C66.818 186.658 121.37 193.78 117.955 141.914C113.702 130.317 105.473 120.604 94.732 114.505C83.9906 108.405 71.4336 106.314 59.2951 108.603C120.082 116.065 104.283 187.19 66.818 186.658Z" fill="white"/>
<path d="M83.9555 160.178C83.9553 163.085 83.0931 165.927 81.4778 168.344C79.8624 170.761 77.5666 172.645 74.8806 173.757C72.1946 174.869 69.2391 175.16 66.3879 174.592C63.5367 174.025 60.9178 172.624 58.8625 170.568C56.8072 168.512 55.4078 165.893 54.8412 163.041C54.2747 160.19 54.5665 157.235 55.6797 154.549C56.7929 151.863 58.6775 149.568 61.0952 147.954C63.5129 146.339 66.355 145.478 69.2622 145.479C73.1597 145.48 76.8972 147.029 79.6526 149.786C82.4081 152.542 83.9558 156.28 83.9555 160.178V160.178Z" fill="white"/>
<path d="M262.758 167.03H257.059V172.729H262.758V167.03Z" fill="white"/>
<path d="M268.837 173.108H263.147V178.808H268.837V173.108Z" fill="white"/>
<path d="M262.758 179.186H257.059V184.886H262.758V179.186Z" fill="white"/>
<path d="M164.003 150.266V155.284H163.397C161.684 155.25 159.988 155.628 158.45 156.385C156.913 157.142 155.579 158.257 154.561 159.635C152.394 162.476 151.26 165.971 151.348 169.543V184.271H146.327V150.802H151.348V159.036C152.188 156.446 153.84 154.195 156.058 152.616C158.277 151.037 160.944 150.213 163.667 150.266H164.003Z" fill="white"/>
<path d="M183.485 180.257C187.992 180.257 191.228 178.382 193.192 174.633H198.682C197.594 177.572 195.675 180.13 193.159 181.997C190.637 183.872 187.39 184.81 183.418 184.81C178.374 184.81 174.268 183.136 171.1 179.789C168.021 176.531 166.481 172.448 166.481 167.538C166.481 162.584 167.953 158.5 170.899 155.287C174.022 151.939 178.084 150.266 183.083 150.266C188.082 150.266 192.143 151.939 195.267 155.287C198.212 158.5 199.685 162.584 199.685 167.538V169.546H171.636C171.907 172.449 173.214 175.158 175.318 177.178C176.408 178.206 177.691 179.007 179.093 179.536C180.495 180.065 181.988 180.31 183.485 180.257V180.257ZM183.081 154.818C180.218 154.737 177.435 155.769 175.316 157.696C173.317 159.593 172.039 162.125 171.701 164.859H194.463C194.123 162.125 192.845 159.593 190.847 157.696C188.728 155.77 185.946 154.738 183.083 154.818H183.081Z" fill="white"/>
<path d="M210.865 156.158C213.543 152.231 217.538 150.267 222.849 150.267C227.669 150.267 231.574 151.94 234.564 155.287C237.554 158.591 239.049 162.675 239.05 167.539C239.051 172.403 237.556 176.486 234.564 179.79C231.574 183.137 227.557 184.811 222.514 184.811C217.472 184.811 213.589 182.825 210.866 178.853V197.531H205.845V150.801H210.866L210.865 156.158ZM222.179 154.819C218.564 154.819 215.708 156.069 213.61 158.569C211.602 160.934 210.598 163.925 210.598 167.539C210.598 171.154 211.602 174.144 213.61 176.51C215.708 179.01 218.564 180.26 222.179 180.259C223.817 180.314 225.446 180.006 226.95 179.358C228.455 178.71 229.797 177.737 230.882 176.51C233.024 174.023 234.148 170.819 234.029 167.539C234.148 164.259 233.024 161.055 230.882 158.569C229.797 157.341 228.455 156.368 226.95 155.72C225.446 155.072 223.817 154.764 222.179 154.818V154.819Z" fill="white"/>
<path d="M250.632 184.275H245.61V137.412H250.631L250.632 184.275Z" fill="white"/>
<path d="M278.815 138.618V145.179H273.392V138.618H278.815ZM273.592 150.802H278.613V184.275H273.592V150.802Z" fill="white"/>
<path d="M290.93 184.274V155.219H284.102V150.801H290.93V138.818H295.951V150.801H303.65V155.219H295.951V184.274L290.93 184.274Z" fill="white"/>
</svg>
