<svg width="320" height="320" viewBox="0 0 320 320" fill="none" xmlns="http://www.w3.org/2000/svg">
<path d="M57.408 225.408C53.568 225.408 50.176 224.96 47.104 221.952L51.072 217.984C53.056 219.968 55.68 220.288 57.536 220.288C59.648 220.288 61.824 219.584 61.824 217.792C61.824 216.576 61.184 215.744 59.264 215.552L55.424 215.168C51.072 214.72 48.384 212.864 48.384 208.384C48.384 203.392 52.8 200.64 57.728 200.64C61.504 200.64 64.64 201.28 67.008 203.456L63.296 207.232C61.888 205.952 59.776 205.632 57.664 205.632C55.232 205.632 54.208 206.72 54.208 207.936C54.208 208.832 54.592 209.856 56.704 210.048L60.544 210.432C65.344 210.88 67.776 213.44 67.776 217.536C67.648 222.848 63.104 225.408 57.408 225.408Z" fill="white"/>
<path d="M78.208 225.152C73.28 225.152 71.168 221.696 71.168 218.24V206.272H68.608V201.6H71.168V194.432H77.184V201.6H81.472V206.208H77.184V217.856C77.184 219.264 77.824 220.032 79.296 220.032H81.472V225.152H78.208Z" fill="white"/>
<path d="M84.16 196.8V191.872H90.368V196.8H84.16ZM84.288 225.152V200.96H90.304V225.152H84.288Z" fill="white"/>
<path d="M104 225.408C99.136 225.408 93.184 222.784 93.184 212.992C93.184 203.2 99.2 200.64 104 200.64C107.328 200.64 109.888 201.664 112 203.904L107.904 208C106.624 206.656 105.6 206.08 104 206.08C102.528 206.08 101.44 206.592 100.544 207.68C99.584 208.832 99.2 210.496 99.2 213.056C99.2 215.616 99.648 217.28 100.544 218.432C101.44 219.52 102.528 220.032 104 220.032C105.6 220.032 106.624 219.456 107.904 218.112L112 222.144C109.824 224.384 107.328 225.408 104 225.408Z" fill="white"/>
<path d="M128.64 225.152L122.688 215.04L120.128 217.92V225.152H114.112V192.064H120.128V210.816L128.192 200.896H135.488L126.848 210.688L136.128 225.152H128.64Z" fill="white"/>
<path d="M141.184 214.912C141.184 218.048 143.104 220.288 146.496 220.288C149.12 220.288 150.464 219.52 152 217.984L155.648 221.568C153.216 224 150.784 225.408 146.432 225.408C140.736 225.408 135.232 222.784 135.232 212.992C135.232 205.12 139.52 200.64 145.792 200.64C152.512 200.64 156.352 205.568 156.352 212.224V214.912H141.184ZM149.824 208.192C149.184 206.72 147.84 205.696 145.792 205.696C143.744 205.696 142.4 206.784 141.76 208.192C141.376 209.088 141.248 209.728 141.184 210.816H150.4C150.336 209.728 150.208 209.088 149.824 208.192Z" fill="white"/>
<path d="M172.352 207.552C171.392 206.592 170.624 206.08 169.152 206.08C167.296 206.08 165.248 207.488 165.248 210.56V225.152H159.232V200.96H165.12V203.264C166.272 201.856 168.64 200.64 171.2 200.64C173.568 200.64 175.232 201.216 176.896 202.944L172.352 207.552Z" fill="white"/>
<path d="M204.096 200.64C201.088 200.64 198.912 201.6 196.864 203.712C195.328 201.6 193.152 200.64 190.464 200.64C188.224 200.64 185.984 201.536 184.448 203.136V200.96H178.56V225.152H184.576V210.496C184.576 207.168 186.688 206.08 188.608 206.08C190.528 206.08 192.576 207.168 192.576 210.496V225.152H198.592V210.368C198.592 207.232 200.768 206.08 202.624 206.08C204.544 206.08 206.592 207.168 206.592 210.496V225.152H212.608V209.664C212.608 207.04 211.904 204.736 209.984 202.752C208.704 201.472 206.528 200.64 204.096 200.64Z" fill="white"/>
<path d="M230.336 215.552C230.336 218.88 228.224 219.968 226.304 219.968C224.384 219.968 222.336 218.88 222.336 215.552V200.96H216.32V216.448C216.32 219.072 216.832 221.376 218.752 223.296C220.096 224.64 222.08 225.408 224.448 225.408C226.688 225.408 228.928 224.576 230.464 222.912V225.152H236.352V200.96H230.336V215.552Z" fill="white"/>
<path d="M246.272 217.856V192.064H240.256V218.24C240.256 221.696 242.368 225.152 247.296 225.152H250.752V220.032H248.448C246.912 220.032 246.272 219.328 246.272 217.856Z" fill="white"/>
<path d="M272.96 212.224C272.96 205.568 269.12 200.64 262.4 200.64C256.128 200.64 251.84 205.12 251.84 212.992C251.84 222.784 257.344 225.408 263.04 225.408C267.392 225.408 269.76 224.064 272.256 221.568L268.608 217.984C267.072 219.52 265.792 220.288 263.104 220.288C259.712 220.288 257.792 217.984 257.792 214.912H272.96V212.224ZM257.792 210.816C257.856 209.728 257.984 209.088 258.368 208.192C259.008 206.72 260.352 205.696 262.4 205.696C264.448 205.696 265.792 206.784 266.432 208.192C266.816 209.088 266.944 209.728 267.008 210.816H257.792Z" fill="white"/>
<path d="M171.2 184.96C170.368 185.344 169.216 185.28 168 185.344C166.976 185.344 165.504 185.408 164.928 184.832C164.608 184.512 164.48 183.936 164.48 183.552C164.48 183.104 164.544 182.592 164.672 182.08C164.8 181.504 164.928 180.736 164.672 180.48C164.416 180.096 163.456 180.288 163.008 179.968C162.496 179.648 162.368 179.008 162.176 178.176C162.112 177.92 161.984 177.728 161.92 177.536C161.792 176.32 162.176 174.72 162.432 173.504C162.752 172.224 163.072 171.008 163.328 169.792C163.648 168 163.776 165.952 163.648 164.032C163.584 163.072 163.456 162.304 163.584 161.472C163.712 160.704 164.032 160.064 164.224 159.296C164.288 159.04 164.224 158.784 164.288 158.528C164.288 158.272 164.48 158.08 164.48 157.888C164.48 157.376 164.352 156.736 164.288 156.096C164.16 154.368 164.288 152 164.416 150.528C164.48 150.016 164.672 149.44 164.352 149.184C162.56 149.184 160.96 149.504 159.296 149.696C154.88 150.272 149.312 150.336 145.024 149.504C144.64 149.44 144.192 149.44 143.808 149.312C140.8 148.608 137.984 147.328 135.808 145.6C135.488 145.344 135.104 145.024 134.72 144.768C134.336 144.512 133.952 144.064 133.632 143.936C131.904 143.104 129.6 144.064 128.896 145.152C128.64 145.6 128.384 146.176 128.128 146.688C127.872 147.2 127.616 147.712 127.424 148.224C126.272 150.848 124.992 153.344 123.84 155.968C123.2 157.504 122.432 159.168 121.92 160.832C120.896 164.416 121.856 169.28 122.688 172.672C122.752 172.992 122.944 173.312 123.072 173.632C123.328 174.464 123.904 175.552 124.544 176.128C124.864 176.448 125.44 176.576 125.824 176.896C126.272 177.28 126.656 178.112 127.04 178.816C127.168 179.072 127.424 179.456 127.616 179.776C128.064 180.544 128.192 181.248 127.36 181.696C126.72 182.016 125.76 182.144 124.864 182.208C124.48 182.336 124.608 182.848 124.352 183.104C124.224 183.232 123.584 183.488 123.264 183.616C122.112 183.936 120.064 183.936 119.168 183.616C118.72 183.424 118.208 183.104 118.08 182.72C117.824 182.016 118.4 181.056 117.888 180.544C117.632 180.288 117.184 180.352 116.736 180.16C116.096 179.904 115.52 179.328 115.264 178.56C114.56 176.768 115.008 174.016 114.944 171.84C114.944 171.2 114.816 170.496 114.816 169.792C114.752 168.512 114.496 167.232 114.304 165.952C114.24 165.312 114.048 164.8 113.92 164.224C113.728 163.328 113.536 162.304 113.28 161.408C112.96 160.384 112.96 159.424 113.344 158.528C113.408 158.272 113.664 158.08 113.856 157.76C114.048 157.248 114.112 156.672 114.112 156.224C113.984 155.968 113.344 156.16 113.216 155.904C112.832 153.088 112.448 150.336 112.192 147.392C112.128 146.432 112.128 145.408 112 144.384C111.808 142.4 112 140.352 111.808 138.432C111.744 137.472 111.488 136.576 111.36 135.68C111.04 133.12 110.336 129.856 110.848 127.168C111.168 125.44 111.808 124.096 112.768 122.816C113.472 121.92 114.176 121.088 115.008 120.32C115.776 119.552 116.672 118.848 117.632 118.144C118.208 117.696 118.848 117.184 119.552 116.928C121.024 116.224 122.944 115.648 124.992 115.584C127.04 115.52 129.344 115.456 131.328 115.84C133.248 116.16 135.168 116.544 137.088 116.928C138.944 117.312 140.736 117.824 142.528 118.272C142.784 118.336 142.976 118.464 143.168 118.528C143.744 118.656 144.384 118.72 144.96 118.912C146.624 119.36 148.736 119.552 150.72 119.552C152.896 119.552 154.816 119.488 156.608 119.04C156.864 118.976 157.056 118.848 157.376 118.72C157.632 118.592 158.016 118.656 158.272 118.528C158.464 118.464 158.656 118.272 158.848 118.208C159.872 117.696 160.768 117.248 161.664 116.608C162.368 116.096 163.008 115.648 163.968 115.264C164.416 115.072 164.8 114.88 165.248 114.752C166.144 114.432 167.168 114.176 167.872 113.728C168.96 113.024 169.792 112 170.688 111.232C171.648 110.4 172.608 109.632 173.632 108.8C175.68 107.2 177.728 105.728 179.648 104.192C180.608 103.424 181.696 102.656 182.848 102.016C185.088 100.736 187.328 99.2638 190.528 99.0078C191.808 98.9438 193.088 98.8798 194.368 99.0718C194.688 99.1358 195.2 99.3278 195.52 99.2638C195.84 99.1998 196.096 98.6878 196.352 98.2398C196.8 97.4078 197.184 96.8318 197.568 95.8078C197.824 95.1678 197.696 94.5278 198.336 94.5918C198.976 94.5918 198.912 96.3198 198.912 96.9598C198.976 97.7278 198.848 98.7518 198.976 99.2638C199.04 99.6478 199.552 100.16 200.064 100.16C200.448 100.16 200.64 99.9038 200.96 99.6478C201.28 99.4558 201.6 99.3278 201.856 99.1358C202.368 98.7518 203.008 98.1118 203.52 97.5358C203.968 97.0878 204.672 96.0638 205.376 96.1278C206.656 96.2558 205.376 98.1118 205.12 98.7518C204.48 100.224 203.84 101.248 203.072 102.656C202.752 103.232 202.048 104 202.048 104.576C202.048 104.96 202.368 105.28 202.56 105.664C202.624 105.856 202.688 106.112 202.752 106.304C203.2 107.328 203.52 108.736 203.84 109.888C204.16 110.848 204.352 111.936 204.736 112.896C205.056 113.856 205.568 114.752 205.952 115.648C206.08 115.904 206.08 116.224 206.144 116.416C206.976 118.464 207.744 120.832 208.704 122.816C209.088 123.648 209.664 124.608 209.664 125.824C209.664 127.104 208.96 127.744 208.384 128.704C208.064 129.216 207.616 129.984 207.168 130.176C206.848 130.304 206.4 130.176 206.08 130.24C205.568 130.304 205.248 130.624 204.8 130.688C203.584 130.816 202.496 129.92 202.176 129.024C202.048 128.704 202.112 128.32 202.048 127.936C201.792 126.528 201.088 125.824 200.064 124.864C199.424 124.288 198.912 123.84 198.144 123.392C196.992 122.816 195.776 122.432 194.56 121.792C194.112 121.536 193.6 121.344 193.216 121.408C192.576 121.536 191.936 122.56 191.424 123.2C188.288 127.296 185.536 131.52 182.528 135.552C180.544 138.24 178.368 140.928 176.768 144C176.384 144.768 176.128 145.664 175.808 146.56C175.488 147.456 175.36 148.416 175.04 149.312C173.888 152.64 173.504 156.736 172.416 160.256C172.288 160.64 172.288 161.024 172.16 161.472C171.648 163.264 171.2 165.312 170.624 167.232C170.176 168.64 170.048 170.56 169.984 172.416C169.92 174.144 169.856 176.64 170.496 177.728C170.816 178.304 172.032 178.56 172.48 179.136C172.8 179.584 172.992 180.416 173.312 180.928C173.504 181.312 174.144 182.144 174.08 182.72C174.016 183.168 173.632 183.488 173.312 183.616C172.928 183.808 172.416 183.68 172.032 183.872C171.456 184.192 171.648 184.704 171.2 184.96Z" fill="white"/>
</svg>
