<svg width="1440" height="144" viewBox="0 0 1440 144" fill="none" xmlns="http://www.w3.org/2000/svg">
<path d="M6.40781 142C4.14115 142 2.34115 141.4 1.00781 140.2C-0.325519 138.867 -1.12552 137.267 -1.39219 135.4L-23.1922 7.59999C-23.3255 7.2 -23.3922 6.73333 -23.3922 6.2C-23.3922 5.13333 -22.9922 4.19999 -22.1922 3.4C-21.2589 2.46666 -20.2589 1.99999 -19.1922 1.99999H5.60781C9.34115 1.99999 11.4078 3.46666 11.8078 6.39999L24.8078 84.4L39.2078 38.4C40.6745 34.8 42.8745 33 45.8078 33H60.2078C63.5411 33 65.7411 34.8 66.8078 38.4L81.2078 84.4L94.2078 6.39999C94.6078 3.46666 96.6745 1.99999 100.408 1.99999H125.208C126.408 1.99999 127.408 2.46666 128.208 3.4C129.141 4.19999 129.608 5.13333 129.608 6.2L129.408 7.59999L107.608 135.4C107.341 137.267 106.474 138.867 105.008 140.2C103.674 141.4 101.941 142 99.8078 142H80.8078C78.6745 142 77.0078 141.467 75.8078 140.4C74.6078 139.333 73.7412 138.133 73.2078 136.8L53.0078 79.6L32.8078 136.8C31.6078 140.267 29.1411 142 25.4078 142H6.40781ZM185.219 142C183.885 142 182.685 141.533 181.619 140.6C180.685 139.533 180.219 138.333 180.219 137V7C180.219 5.53333 180.685 4.33333 181.619 3.4C182.685 2.46666 183.885 1.99999 185.219 1.99999H278.619C280.085 1.99999 281.285 2.46666 282.219 3.4C283.152 4.33333 283.619 5.53333 283.619 7V25.8C283.619 27.1333 283.152 28.3333 282.219 29.4C281.285 30.3333 280.085 30.8 278.619 30.8H214.819V57.8H274.219C275.685 57.8 276.885 58.3333 277.819 59.4C278.752 60.3333 279.219 61.5333 279.219 63V80.4C279.219 81.7333 278.752 82.9333 277.819 84C276.885 84.9333 275.685 85.4 274.219 85.4H214.819V113.2H280.219C281.685 113.2 282.885 113.667 283.819 114.6C284.752 115.533 285.219 116.733 285.219 118.2V137C285.219 138.333 284.752 139.533 283.819 140.6C282.885 141.533 281.685 142 280.219 142H185.219ZM390.153 144C377.486 144 366.62 142.133 357.553 138.4C348.486 134.667 341.62 129.8 336.953 123.8C332.42 117.667 330.02 111 329.753 103.8C329.753 102.733 330.153 101.8 330.953 101C331.886 100.067 332.953 99.6 334.153 99.6H359.353C360.953 99.6 362.22 99.9333 363.153 100.6C364.22 101.133 365.286 102 366.353 103.2C368.086 106.667 370.886 109.533 374.753 111.8C378.62 114.067 383.753 115.2 390.153 115.2C397.753 115.2 403.553 114 407.553 111.6C411.553 109.2 413.553 105.933 413.553 101.8C413.553 98.8667 412.486 96.4667 410.353 94.6C408.353 92.7333 405.153 91.0667 400.753 89.6C396.353 88.1333 389.82 86.4667 381.153 84.6C365.153 81.2667 353.153 76.4 345.153 70C337.286 63.4667 333.353 54.2 333.353 42.2C333.353 34.0667 335.62 26.8 340.153 20.4C344.686 14 351.153 9 359.553 5.39999C367.953 1.79999 377.753 -7.62939e-06 388.953 -7.62939e-06C400.553 -7.62939e-06 410.62 1.99999 419.153 6C427.686 9.99999 434.153 15.0667 438.553 21.2C443.086 27.2 445.486 33.1333 445.753 39C445.753 40.2 445.353 41.2 444.553 42C443.753 42.8 442.753 43.2 441.553 43.2H415.153C413.553 43.2 412.22 42.9333 411.153 42.4C410.22 41.8667 409.353 41 408.553 39.8C407.753 36.7333 405.553 34.1333 401.953 32C398.486 29.8667 394.153 28.8 388.953 28.8C382.953 28.8 378.353 29.8667 375.153 32C371.953 34.1333 370.353 37.2667 370.353 41.4C370.353 44.2 371.22 46.5333 372.953 48.4C374.82 50.2667 377.753 52 381.753 53.6C385.886 55.0667 391.753 56.6 399.353 58.2C411.753 60.4667 421.62 63.3333 428.953 66.8C436.42 70.1333 441.886 74.5333 445.353 80C448.82 85.3333 450.553 92.0667 450.553 100.2C450.553 109.133 447.953 116.933 442.753 123.6C437.686 130.133 430.553 135.2 421.353 138.8C412.286 142.267 401.886 144 390.153 144ZM535.003 142C533.67 142 532.47 141.533 531.403 140.6C530.47 139.533 530.003 138.333 530.003 137V33.4H494.403C493.07 33.4 491.87 32.9333 490.803 32C489.87 30.9333 489.403 29.7333 489.403 28.4V7C489.403 5.53333 489.87 4.33333 490.803 3.4C491.87 2.46666 493.07 1.99999 494.403 1.99999H602.003C603.47 1.99999 604.67 2.46666 605.603 3.4C606.536 4.33333 607.003 5.53333 607.003 7V28.4C607.003 29.8667 606.536 31.0667 605.603 32C604.67 32.9333 603.47 33.4 602.003 33.4H566.403V137C566.403 138.333 565.936 139.533 565.003 140.6C564.07 141.533 562.87 142 561.403 142H535.003ZM677.58 142C675.313 142 673.513 141.4 672.18 140.2C670.846 138.867 670.046 137.267 669.78 135.4L647.98 7.59999C647.846 7.2 647.78 6.73333 647.78 6.2C647.78 5.13333 648.18 4.19999 648.98 3.4C649.913 2.46666 650.913 1.99999 651.98 1.99999H676.78C680.513 1.99999 682.58 3.46666 682.98 6.39999L695.98 84.4L710.38 38.4C711.846 34.8 714.046 33 716.98 33H731.38C734.713 33 736.913 34.8 737.98 38.4L752.38 84.4L765.38 6.39999C765.78 3.46666 767.846 1.99999 771.58 1.99999H796.38C797.58 1.99999 798.58 2.46666 799.38 3.4C800.313 4.19999 800.78 5.13333 800.78 6.2L800.58 7.59999L778.78 135.4C778.513 137.267 777.646 138.867 776.18 140.2C774.846 141.4 773.113 142 770.98 142H751.98C749.846 142 748.18 141.467 746.98 140.4C745.78 139.333 744.913 138.133 744.38 136.8L724.18 79.6L703.98 136.8C702.78 140.267 700.313 142 696.58 142H677.58ZM907.028 144C888.228 144 873.428 139.4 862.628 130.2C851.828 121 846.095 107.467 845.428 89.6C845.295 85.7333 845.228 80 845.228 72.4C845.228 64.6667 845.295 58.8667 845.428 55C846.095 37.4 851.895 23.8667 862.828 14.4C873.895 4.79999 888.628 -7.62939e-06 907.028 -7.62939e-06C925.428 -7.62939e-06 940.161 4.79999 951.228 14.4C962.295 23.8667 968.095 37.4 968.628 55C968.895 62.7333 969.028 68.5333 969.028 72.4C969.028 76.1333 968.895 81.8667 968.628 89.6C967.961 107.467 962.228 121 951.428 130.2C940.628 139.4 925.828 144 907.028 144ZM907.028 115.2C914.361 115.2 920.161 113 924.428 108.6C928.828 104.2 931.161 97.4667 931.428 88.4C931.695 80.6667 931.828 75.2 931.828 72C931.828 68.5333 931.695 63.0667 931.428 55.6C931.161 46.5333 928.828 39.8 924.428 35.4C920.028 31 914.228 28.8 907.028 28.8C899.828 28.8 894.028 31 889.628 35.4C885.361 39.8 883.028 46.5333 882.628 55.6C882.495 59.3333 882.428 64.8 882.428 72C882.428 79.0667 882.495 84.5333 882.628 88.4C883.028 97.4667 885.361 104.2 889.628 108.6C893.895 113 899.695 115.2 907.028 115.2ZM1027.21 142C1025.88 142 1024.68 141.533 1023.61 140.6C1022.68 139.533 1022.21 138.333 1022.21 137V7C1022.21 5.53333 1022.68 4.33333 1023.61 3.4C1024.68 2.46666 1025.88 1.99999 1027.21 1.99999H1081.61C1099.08 1.99999 1112.68 5.99999 1122.41 14C1132.28 21.8667 1137.21 33.0667 1137.21 47.6C1137.21 56.9333 1135.01 64.8667 1130.61 71.4C1126.21 77.9333 1120.14 82.9333 1112.41 86.4L1139.81 135.6C1140.21 136.4 1140.41 137.133 1140.41 137.8C1140.41 138.867 1139.94 139.867 1139.01 140.8C1138.21 141.6 1137.28 142 1136.21 142H1109.61C1105.74 142 1103.01 140.2 1101.41 136.6L1078.61 92.6H1058.21V137C1058.21 138.467 1057.68 139.667 1056.61 140.6C1055.68 141.533 1054.48 142 1053.01 142H1027.21ZM1081.21 64.2C1087.34 64.2 1092.01 62.7333 1095.21 59.8C1098.41 56.7333 1100.01 52.5333 1100.01 47.2C1100.01 41.8667 1098.41 37.6667 1095.21 34.6C1092.14 31.4 1087.48 29.8 1081.21 29.8H1058.21V64.2H1081.21ZM1195.49 142C1194.16 142 1192.96 141.533 1191.89 140.6C1190.96 139.533 1190.49 138.333 1190.49 137V7C1190.49 5.53333 1190.96 4.33333 1191.89 3.4C1192.96 2.46666 1194.16 1.99999 1195.49 1.99999H1221.89C1223.36 1.99999 1224.56 2.46666 1225.49 3.4C1226.43 4.33333 1226.89 5.53333 1226.89 7V111.8H1287.49C1288.96 111.8 1290.16 112.333 1291.09 113.4C1292.03 114.333 1292.49 115.533 1292.49 117V137C1292.49 138.333 1292.03 139.533 1291.09 140.6C1290.16 141.533 1288.96 142 1287.49 142H1195.49ZM1344.83 142C1343.49 142 1342.29 141.533 1341.23 140.6C1340.29 139.533 1339.83 138.333 1339.83 137V7C1339.83 5.53333 1340.29 4.33333 1341.23 3.4C1342.29 2.46666 1343.49 1.99999 1344.83 1.99999H1396.83C1416.43 1.99999 1431.63 6.66666 1442.43 16C1453.23 25.3333 1458.89 38.8667 1459.43 56.6C1459.56 60.4667 1459.63 65.6 1459.63 72C1459.63 78.4 1459.56 83.4667 1459.43 87.2C1458.76 105.733 1453.23 119.533 1442.83 128.6C1432.56 137.533 1417.56 142 1397.83 142H1344.83ZM1396.83 113.2C1405.63 113.2 1412.09 111.133 1416.23 107C1420.36 102.733 1422.56 96 1422.83 86.8C1423.09 82.9333 1423.23 77.9333 1423.23 71.8C1423.23 65.6667 1423.09 60.7333 1422.83 57C1422.56 48.0667 1420.16 41.4667 1415.63 37.2C1411.23 32.9333 1404.63 30.8 1395.83 30.8H1375.83V113.2H1396.83Z" fill="white" fill-opacity="0.95"/>
</svg>
